<svg width="32" height="32" viewBox="0 0 32 32" fill="none" xmlns="http://www.w3.org/2000/svg">
  <circle cx="16" cy="16" r="16" fill="#ED751A"/>
  <path d="M12 12C12 10.8954 12.8954 10 14 10H18C19.1046 10 20 10.8954 20 12V14C20 15.1046 19.1046 16 18 16H14C12.8954 16 12 15.1046 12 14V12Z" fill="white"/>
  <circle cx="14" cy="13" r="1" fill="#ED751A"/>
  <circle cx="18" cy="13" r="1" fill="#ED751A"/>
  <path d="M16 15C16.5523 15 17 15.4477 17 16C17 16.5523 16.5523 17 16 17C15.4477 17 15 16.5523 15 16C15 15.4477 15.4477 15 16 15Z" fill="#ED751A"/>
  <path d="M13 18C13 17.4477 13.4477 17 14 17H18C18.5523 17 19 17.4477 19 18C19 18.5523 18.5523 19 18 19H14C13.4477 19 13 18.5523 13 18Z" fill="#ED751A"/>
  <path d="M10 12C10 11.4477 10.4477 11 11 11C11.5523 11 12 11.4477 12 12C12 12.5523 11.5523 13 11 13C10.4477 13 10 12.5523 10 12Z" fill="white"/>
  <path d="M20 12C20 11.4477 20.4477 11 21 11C21.5523 11 22 11.4477 22 12C22 12.5523 21.5523 13 21 13C20.4477 13 20 12.5523 20 12Z" fill="white"/>
</svg> 