<svg xmlns="http://www.w3.org/2000/svg" xmlns:xlink="http://www.w3.org/1999/xlink" width="500" zoomAndPan="magnify" viewBox="0 0 375 374.999991" height="500" preserveAspectRatio="xMidYMid meet" version="1.0"><defs><clipPath id="120b938beb"><path d="M 161.476562 -112.96875 C -21.785156 -112.96875 -170.351562 35.597656 -170.351562 218.859375 C -170.351562 402.125 -21.785156 550.691406 161.476562 550.691406 C 344.742188 550.691406 493.304688 402.125 493.304688 218.859375 C 493.304688 35.597656 344.742188 -112.96875 161.476562 -112.96875 Z M 161.476562 -112.96875 " clip-rule="nonzero"/></clipPath><clipPath id="02a10a4f96"><path d="M 0 0 L 375 0 L 375 375 L 0 375 Z M 0 0 " clip-rule="nonzero"/></clipPath><clipPath id="8844fd6a0e"><path d="M 161.476562 -112.96875 C -21.785156 -112.96875 -170.351562 35.597656 -170.351562 218.859375 C -170.351562 402.125 -21.785156 550.691406 161.476562 550.691406 C 344.742188 550.691406 493.304688 402.125 493.304688 218.859375 C 493.304688 35.597656 344.742188 -112.96875 161.476562 -112.96875 Z M 161.476562 -112.96875 " clip-rule="nonzero"/></clipPath><clipPath id="6c6beeacf3"><rect x="0" width="375" y="0" height="375"/></clipPath></defs><rect x="-37.5" width="450" fill="#ffffff" y="-37.499999" height="449.999989" fill-opacity="1"/><rect x="-37.5" width="450" fill="#ffffff" y="-37.499999" height="449.999989" fill-opacity="1"/><g clip-path="url(#120b938beb)"><g transform="matrix(1, 0, 0, 1, 0, 0)"><g clip-path="url(#6c6beeacf3)"><g clip-path="url(#02a10a4f96)"><g clip-path="url(#8844fd6a0e)"><rect x="-82.5" width="540" fill="#ed751a" height="539.999987" y="-82.499998" fill-opacity="1"/></g></g></g></g></g><path stroke-linecap="round" transform="matrix(13.25, 0, 0, 13.25, 30.22687, 37.499998)" fill="none" stroke-linejoin="round" d="M 11.999977 5 C 12.670083 5 13.349918 5.089918 13.999977 5.260024 C 15.780048 3.260024 19.030048 2.420106 20.420083 3 C 21.820142 3.579894 19.999977 10 19.999977 10 C 20.570142 11.069871 20.999977 12.239977 20.999977 13.439859 C 20.999977 17.900059 16.969906 21.000001 11.999977 21.000001 C 7.030048 21.000001 2.999977 18 2.999977 13.439859 C 2.999977 12.189859 3.499977 11.040095 3.999977 10 C 3.999977 10 2.109941 3.579894 3.499977 3 C 4.890012 2.420106 8.219906 3.229953 9.999977 5.229953 C 10.657996 5.078715 11.324859 5.002064 11.999977 5 Z M 11.999977 5 " stroke="#000000" stroke-width="2" stroke-opacity="1" stroke-miterlimit="4"/><path stroke-linecap="round" transform="matrix(13.25, 0, 0, 13.25, 30.22687, 37.499998)" fill="none" stroke-linejoin="round" d="M 7.999977 14 L 7.999977 14.5 " stroke="#000000" stroke-width="2" stroke-opacity="1" stroke-miterlimit="4"/><path stroke-linecap="round" transform="matrix(13.25, 0, 0, 13.25, 30.22687, 37.499998)" fill="none" stroke-linejoin="round" d="M 15.999977 14 L 15.999977 14.5 " stroke="#000000" stroke-width="2" stroke-opacity="1" stroke-miterlimit="4"/><path stroke-linecap="round" transform="matrix(13.25, 0, 0, 13.25, 30.22687, 37.499998)" fill="none" stroke-linejoin="round" d="M 11.249977 16.25 L 12.749977 16.25 L 11.999977 17 Z M 11.249977 16.25 " stroke="#000000" stroke-width="2" stroke-opacity="1" stroke-miterlimit="4"/></svg>